<svg width="260" height="308" viewBox="0 0 260 308" fill="none" xmlns="http://www.w3.org/2000/svg">
<path fill-rule="evenodd" clip-rule="evenodd" d="M149.24 83.3748C198.612 47.088 247.749 -5.70186 308.63 1.21194C371.204 8.3179 444.578 55.1006 451.44 117.693C458.974 186.408 345.64 217.605 339.908 286.494C334.353 353.25 464.913 412.299 422.602 464.239C380.544 515.87 299.213 427.842 233.482 417.142C202.43 412.087 171.19 428.627 141.417 418.464C110.585 407.94 88.022 384.105 66.0997 360.008C39.3418 330.597 -1.02575 303.496 0.682017 263.772C2.38882 224.069 48.8505 204.254 74.1145 173.575C99.6128 142.612 116.919 107.13 149.24 83.3748Z" fill="url(#paint0_linear_1_909)"/>
<defs>
<linearGradient id="paint0_linear_1_909" x1="127.925" y1="109.439" x2="337.177" y2="460.402" gradientUnits="userSpaceOnUse">
<stop stop-color="#7A83FF"/>
<stop offset="1" stop-color="#7071FC"/>
</linearGradient>
</defs>
</svg>
