<svg width="303" height="469" viewBox="0 0 303 469" fill="none" xmlns="http://www.w3.org/2000/svg">
    <path fill-rule="evenodd" clip-rule="evenodd"
        d="M53.8631 7.74048C96.551 12.0713 134.805 29.302 173.278 48.2975C216.464 69.6199 270.442 82.2893 292.042 125.337C313.711 168.521 299.243 221.542 283.046 267.062C268.747 307.248 242.734 343.994 206.33 366.223C174.281 385.794 131.069 365.117 96.9117 380.72C53.2662 400.658 31.3193 481.192 -14.5564 467.126C-60.7134 452.973 -43.2652 377.988 -59.8591 332.651C-69.6826 305.812 -87.7798 283.348 -92.1593 255.105C-96.5752 226.627 -86.2019 199.499 -84.971 170.707C-82.815 120.279 -114.942 60.7991 -82.2093 22.3774C-52.0139 -13.0666 7.53875 3.04069 53.8631 7.74048Z"
        fill="url(#paint0_linear_1_910)" />
    <defs>
        <linearGradient id="paint0_linear_1_910" x1="-97" y1="234.382" x2="303" y2="234.382"
            gradientUnits="userSpaceOnUse">
            <stop stop-color="#6865FA" />
            <stop offset="0.9999" stop-color="#7E8BFF" />
            <stop offset="1" stop-color="#6865FA" />
        </linearGradient>
    </defs>
</svg>